<svg height="427pt" viewBox="0 -1 427.65 427" width="427pt" xmlns="http://www.w3.org/2000/svg"><path d="m77 14.324219h-30c-18.214844.023437-32.980469 14.785156-33 33v201.917969h30v-201.917969c.019531-18.214844 14.785156-32.976563 33-33zm0 0" fill="#d4e1f4"/><path d="m410.648438 304.5625h-333.648438c-18.21875-.019531-32.980469-14.78125-33-33v-8.320312h-30v28.320312c.019531 18.21875 14.78125 32.980469 33 33h333.648438c13.199218-.011719 25.125-7.878906 30.332031-20.007812-.109375.003906-.21875.007812-.332031.007812zm0 0" fill="#d4e1f4"/><path d="m301.234375 410.324219h-80.410156v-78.761719c0-3.863281-3.132813-7-7-7-3.863281 0-7 3.136719-7 7v78.761719h-75.625c-3.867188 0-7 3.136719-7 7 0 3.867187 3.132812 7 7 7h170.035156c3.867187 0 7-3.132813 7-7 0-3.863281-3.132813-7-7-7zm0 0" fill="#1ae5be"/><path d="m105.324219 135.128906c-2.050781.003906-3.996094-.894531-5.328125-2.453125l-11.5625-13.542969c-2.511719-2.9375-2.164063-7.359374.777344-9.867187 2.941406-2.511719 7.359374-2.164063 9.871093.777344l7.125 8.34375 21.628907-17.601563c3-2.410156 7.382812-1.945312 9.8125 1.039063 2.429687 2.984375 1.992187 7.375-.976563 9.820312l-26.933594 21.910157c-1.246093 1.019531-2.804687 1.574218-4.414062 1.574218zm0 0" fill="#1ae5be"/><path d="m376.09375 193.511719-16.855469-95.160157c-1.230469-7.78125-7.949219-13.5-15.828125-13.46875h-7.355468v-6.734374c0-20.351563-16.5-36.851563-36.855469-36.851563-20.351563 0-36.851563 16.5-36.851563 36.851563v6.734374h-7.359375c-7.875-.03125-14.597656 5.6875-15.824219 13.46875l-16.855468 95.160157c-.070313.40625-.109375.8125-.109375 1.222656.019531 13.835937 11.230469 25.046875 25.066406 25.066406h103.871094c13.835937-.019531 25.046875-11.230469 25.0625-25.066406 0-.410156-.035157-.816406-.105469-1.222656zm-99.746094-115.363281c0-12.621094 10.230469-22.851563 22.851563-22.851563 12.625 0 22.855469 10.230469 22.855469 22.851563v6.734374h-45.707032zm74.789063 127.652343h-103.871094c-5.898437-.007812-10.757813-4.636719-11.050781-10.527343l16.746094-94.539063c.007812-.042969.015624-.089844.019531-.136719.152343-.988281 1.007812-1.71875 2.007812-1.714844h7.359375v12.699219c0 3.867188 3.132813 7 7 7 3.867188 0 7-3.132812 7-7v-12.699219h45.707032v12.699219c0 3.867188 3.132812 7 7 7 3.867187 0 7-3.132812 7-7v-12.699219h7.355468c1.003906-.003906 1.855469.726563 2.007813 1.714844.007812.046875.015625.09375.023437.136719l16.746094 94.539063c-.296875 5.890624-5.152344 10.519531-11.050781 10.527343zm0 0" fill="#1ae5be"/><g fill="#0635c9"><path d="m380.648438.324219h-333.648438c-25.945312.03125-46.9726562 21.054687-47 47v244.238281c.0273438 25.945312 21.054688 46.972656 47 47h333.648438c25.945312-.027344 46.972656-21.054688 47-47v-244.238281c-.027344-25.945313-21.054688-46.96875-47-47zm-333.648438 14h333.648438c18.21875.023437 32.980468 14.785156 33 33v201.917969h-399.648438v-201.917969c.019531-18.214844 14.785156-32.976563 33-33zm333.648438 310.238281h-333.648438c-18.21875-.023438-32.980469-14.785156-33-33v-28.320312h399.648438v28.320312c-.019532 18.21875-14.78125 32.980469-33 33zm0 0"/><path d="m113.007812 172.355469c25.804688 0 48.164063-17.886719 53.832032-43.066407 5.664062-25.175781-6.875-50.917968-30.191406-61.976562-23.316407-11.054688-51.183594-4.476562-67.09375 15.84375-16.828126 21.496094-15.40625 52.066406 3.339843 71.910156 10.4375 11.011719 24.9375 17.261719 40.113281 17.289063zm-32.433593-80.558594c12.398437-15.847656 34.429687-20.417969 52.105469-10.808594 17.675781 9.609375 25.824218 30.585938 19.265624 49.605469-6.554687 19.023438-25.894531 30.523438-45.738281 27.199219s-34.382812-20.5-34.382812-40.617188c-.015625-9.203125 3.066406-18.144531 8.75-25.378906zm0 0"/><path d="m64.824219 198.324219h95c3.867187 0 7-3.132813 7-7 0-3.863281-3.132813-7-7-7h-95c-3.863281 0-7 3.136719-7 7 0 3.867187 3.136719 7 7 7zm0 0"/><path d="m64.824219 228.324219h56c3.867187 0 7-3.132813 7-7 0-3.863281-3.132813-7-7-7h-56c-3.863281 0-7 3.136719-7 7 0 3.867187 3.136719 7 7 7zm0 0"/></g></svg>